<svg width="336" height="27" viewBox="0 0 336 27" fill="none" xmlns="http://www.w3.org/2000/svg">
<g clip-path="url(#clip0_2097_7133)">
<path d="M24.0494 7.45605H17.9507C16.2082 7.45605 14.8325 8.87757 14.8325 10.5742V16.673C14.8325 18.4155 16.254 19.7912 17.9507 19.7912H24.0494C25.792 19.7912 27.1676 18.3696 27.1676 16.673V10.5742C27.1676 8.87757 25.792 7.45605 24.0494 7.45605ZM21.0689 17.3608C19.0054 17.3608 17.3087 15.6642 17.3087 13.6007C17.3087 11.5372 19.0054 9.84053 21.0689 9.84053C23.1323 9.84053 24.829 11.5372 24.829 13.6007C24.7831 15.71 23.1323 17.3608 21.0689 17.3608ZM25.0124 10.5284C24.508 10.5284 24.1412 10.1157 24.1412 9.65711C24.1412 9.19856 24.5539 8.78586 25.0124 8.78586C25.5168 8.78586 25.8837 9.19856 25.8837 9.65711C25.9295 10.1157 25.5168 10.5284 25.0124 10.5284Z" fill="white"/>
<path d="M21.0688 11.2163C19.739 11.2163 18.6843 12.271 18.6843 13.6008C18.6843 14.9306 19.739 15.9853 21.0688 15.9853C22.3986 15.9853 23.4533 14.9306 23.4533 13.6008C23.4533 12.3168 22.3986 11.2163 21.0688 11.2163Z" fill="white"/>
<path d="M32.5785 0.623535H9.42152C8.64198 0.623535 8 1.26551 8 2.04505V25.202C8 25.9816 8.64198 26.6235 9.42152 26.6235H32.5785C33.358 26.6235 34 25.9816 34 25.202V2.04505C34 1.26551 33.358 0.623535 32.5785 0.623535ZM28.5891 16.6729C28.5891 19.195 26.5256 21.2126 24.0494 21.2126H17.9506C15.4286 21.2126 13.3651 19.195 13.3651 16.6271V10.5742C13.3651 8.05211 15.4286 5.98861 17.9506 5.98861H24.0494C26.5714 5.98861 28.6349 8.05211 28.6349 10.5742L28.5891 16.6729Z" fill="white"/>
</g>
<g clip-path="url(#clip1_2097_7133)">
<path d="M73.6714 0.807129H52.2947C51.1305 0.807129 50.1892 1.75665 50.1892 2.93115V24.4956C50.1892 25.6699 51.1305 26.6195 52.2947 26.6195H73.6714C74.8357 26.6195 75.7769 25.6699 75.7769 24.4956V2.93115C75.7769 1.75665 74.8357 0.807129 73.6714 0.807129ZM70.7531 12.1098C70.7531 12.1098 69.672 12.0641 68.8706 11.8505C67.7516 11.5493 67.0372 11.0917 67.0372 11.0917C67.0372 11.0917 66.5382 10.7637 66.5042 10.7408V17.071C66.5042 17.4218 66.4097 18.3027 66.1338 19.0387C65.7709 19.9958 65.2039 20.6326 65.1018 20.7585C65.1018 20.7585 64.4138 21.6127 63.208 22.1847C62.1193 22.7033 61.1629 22.6918 60.8756 22.7033C60.8756 22.7033 59.2237 22.7719 57.7343 21.7538C57.413 21.5326 57.1182 21.2809 56.8422 21.0025L56.8347 20.9949C56.6797 20.8347 56.5285 20.667 56.3924 20.4877C55.9161 19.8776 55.6288 19.1569 55.5532 18.951C55.436 18.5925 55.1903 17.7307 55.2243 16.9032C55.2848 15.4389 55.7725 14.5351 55.9048 14.3101C56.245 13.6962 56.6948 13.1432 57.224 12.6856C57.6928 12.2891 58.222 11.9687 58.7928 11.7476C59.4089 11.4844 60.0704 11.3472 60.7395 11.3357C61.0382 11.3357 61.333 11.351 61.6279 11.3967V14.5237C61.6279 14.5237 60.4069 14.1156 59.4241 14.8402C58.7399 15.374 58.3769 15.8965 58.2711 16.8307C58.2673 17.3341 58.3581 17.9976 58.7701 18.5658C58.7701 18.5658 58.7739 18.5658 58.7776 18.5658C58.9364 18.7832 59.1292 18.9738 59.3522 19.1302C60.2481 19.7251 60.9928 19.767 61.953 19.3819C62.5918 19.1226 63.0719 18.5429 63.2949 17.8947C63.4347 17.4904 63.431 17.0862 63.431 16.6668V4.73105H66.508C66.508 4.73105 66.3417 6.17629 67.5702 7.59866L67.5891 7.61774C67.5891 7.61774 67.5513 7.59105 67.5324 7.5796C67.5513 7.59105 67.5664 7.60629 67.5853 7.61774C67.6836 7.72451 68.1826 8.25076 68.829 8.57869C69.1578 8.74648 69.5132 8.87614 69.8723 8.96004C70.2428 9.05156 70.5603 9.07062 70.7644 9.05154V12.1175L70.7531 12.1098Z" fill="white"/>
</g>
<g clip-path="url(#clip2_2097_7133)">
<path d="M116.578 0.623535H93.4215C92.642 0.623535 92 1.26551 92 2.04505V25.202C92 25.9816 92.642 26.6235 93.4215 26.6235H116.578C117.358 26.6235 118 25.9816 118 25.202V2.04505C118 1.26551 117.358 0.623535 116.578 0.623535ZM99.7496 16.7646V22.8175C99.7496 23.1385 99.7496 23.1385 99.4286 23.1385H96.0353C95.806 23.1385 95.7143 23.0927 95.7143 22.8634C95.7143 18.7823 95.7143 14.747 95.7143 10.6659C95.7143 10.4366 95.7601 10.3907 95.9894 10.3907C97.1358 10.3907 98.2822 10.3907 99.4286 10.3907C99.6578 10.3907 99.7037 10.4824 99.7037 10.6659C99.7496 12.7294 99.7496 14.747 99.7496 16.7646ZM97.7778 8.69408C96.4938 8.69408 95.485 7.68526 95.485 6.40131C95.485 5.11736 96.4938 4.10854 97.7778 4.10854C99.0617 4.10854 100.071 5.11736 100.071 6.40131C100.025 7.68526 99.0159 8.69408 97.7778 8.69408ZM114.24 23.1844C113.093 23.1844 111.993 23.1844 110.847 23.1844C110.571 23.1844 110.526 23.0927 110.526 22.8634C110.526 20.754 110.526 18.6906 110.526 16.5812C110.526 16.0309 110.48 15.5265 110.342 14.9763C110.205 14.1509 109.471 13.5548 108.6 13.6465C108.325 13.6465 108.004 13.6465 107.728 13.7382C106.811 13.9675 106.399 14.6553 106.261 15.5265C106.169 15.9392 106.169 16.3519 106.169 16.7646C106.169 18.7823 106.169 20.8458 106.169 22.8634C106.169 23.1385 106.078 23.1844 105.848 23.1844C104.702 23.1844 103.601 23.1844 102.455 23.1844C102.18 23.1844 102.134 23.0927 102.134 22.8634C102.134 18.8281 102.134 14.7928 102.134 10.7576C102.134 10.5283 102.18 10.4366 102.455 10.4366C103.556 10.4366 104.61 10.4366 105.711 10.4366C105.94 10.4366 105.986 10.5283 105.986 10.7117C105.986 11.1703 105.986 11.6288 105.986 12.1332C106.536 11.2161 107.407 10.5283 108.462 10.2532C109.7 9.93218 111.03 10.0239 112.176 10.5742C113.369 11.1244 113.965 12.1791 114.24 13.3713C114.423 14.2884 114.515 15.2055 114.515 16.1227C114.515 18.3696 114.515 20.6165 114.515 22.8634C114.561 23.0927 114.469 23.1844 114.24 23.1844Z" fill="white"/>
</g>
<g clip-path="url(#clip3_2097_7133)">
<path d="M147.161 12.3625L143.171 6.81396H141.062L145.968 13.6923L146.61 14.5635L150.783 20.4789H152.938L147.757 13.2337L147.161 12.3625Z" fill="white"/>
<path d="M158.578 0.623535H135.422C134.642 0.623535 134 1.26551 134 2.04505V25.1562C134 25.9357 134.642 26.5777 135.422 26.5777H158.533C159.312 26.5777 159.954 25.9357 159.954 25.1562V2.04505C160 1.26551 159.358 0.623535 158.578 0.623535ZM150.141 21.4419L145.922 15.389L140.557 21.4419H139.182L145.28 14.5177L139.182 5.80519H143.813L147.848 11.5371L152.892 5.80519H154.268L148.49 12.4084L154.818 21.396H150.141V21.4419Z" fill="white"/>
</g>
<g clip-path="url(#clip4_2097_7133)">
<path d="M199.642 0.623535H178.12C176.948 0.623535 176 1.5709 176 2.74274V24.2582C176 25.4299 176.948 26.3774 178.12 26.3774H186.42V17.1891H183.292V13.5823H186.42V10.4396C186.42 6.93168 189.37 5.52015 191.33 5.52015C193.29 5.52015 194.47 5.8055 194.47 5.8055V9.14221H192.521C191.638 9.14221 191.235 9.75857 191.048 10.3521C190.873 10.9114 190.892 11.4517 190.892 11.4517V13.5899H194.47L193.845 17.1967H190.892V26.385H199.642C200.814 26.385 201.761 25.4376 201.761 24.2658V2.74274C201.761 1.5709 200.814 0.623535 199.642 0.623535Z" fill="white"/>
</g>
<g clip-path="url(#clip5_2097_7133)">
<path d="M242.578 0.623535H219.422C218.642 0.623535 218 1.26551 218 2.04505V25.202C218 25.9816 218.642 26.6235 219.422 26.6235H242.578C243.358 26.6235 244 25.9816 244 25.202V2.04505C244 1.26551 243.358 0.623535 242.578 0.623535ZM238.818 17.5442C238.635 18.232 238.085 18.7823 237.397 18.9657C236.113 19.2867 231.023 19.2867 231.023 19.2867C231.023 19.2867 225.933 19.2867 224.649 18.9657C223.961 18.7823 223.411 18.232 223.228 17.5442C222.907 16.2602 222.907 13.6006 222.907 13.6006C222.907 13.6006 222.907 10.941 223.228 9.65705C223.411 8.96921 223.961 8.41895 224.649 8.23553C225.933 7.91454 231.023 7.91454 231.023 7.91454C231.023 7.91454 236.113 7.91454 237.397 8.23553C238.085 8.41895 238.635 8.96921 238.818 9.65705C239.139 10.941 239.139 13.6006 239.139 13.6006C239.139 13.6006 239.139 16.2602 238.818 17.5442Z" fill="white"/>
<path d="M229.372 16.0769V11.1704L233.591 13.6466L229.372 16.0769Z" fill="white"/>
</g>
<g clip-path="url(#clip6_2097_7133)">
<path d="M278.968 11.3171C275.747 9.38752 270.655 9.20829 267.59 10.1464C267.163 10.276 266.921 10.7336 267.049 11.1683C267.178 11.5992 267.631 11.8433 268.062 11.7136C270.731 10.8976 275.346 11.0501 278.14 12.7242C278.526 12.9568 279.025 12.8271 279.251 12.4382C279.478 12.0492 279.353 11.5459 278.968 11.3171Z" fill="white"/>
<path d="M277.826 14.2646C275.15 12.6058 271.23 12.1368 268.081 13.1016C267.726 13.2122 267.522 13.5935 267.631 13.952C267.741 14.3104 268.119 14.5163 268.474 14.4057C271.234 13.563 274.787 13.9786 277.119 15.4239C277.437 15.6222 277.853 15.5192 278.049 15.1989C278.246 14.8786 278.144 14.4591 277.826 14.2608V14.2646Z" fill="white"/>
<path d="M276.806 16.8385C274.519 15.4275 271.683 15.0996 268.38 15.8622C268.089 15.9309 267.907 16.2207 267.971 16.5143C268.039 16.8079 268.327 16.991 268.618 16.9262C271.638 16.2321 274.201 16.5143 276.239 17.7689C276.492 17.9253 276.824 17.8452 276.983 17.5859C277.138 17.3304 277.059 16.991 276.806 16.8346V16.8385Z" fill="white"/>
<path d="M283.697 0.807129H262.32C261.156 0.807129 260.215 1.75665 260.215 2.93115V24.4956C260.215 25.6699 261.156 26.6195 262.32 26.6195H283.697C284.861 26.6195 285.802 25.6699 285.802 24.4956V2.93115C285.802 1.75665 284.861 0.807129 283.697 0.807129ZM273.007 22.4668C268.213 22.4668 264.331 18.5506 264.331 13.7152C264.331 8.87994 268.217 4.96364 273.007 4.96364C277.796 4.96364 281.682 8.88375 281.682 13.7152C281.682 18.5467 277.796 22.4668 273.007 22.4668Z" fill="white"/>
</g>
<g clip-path="url(#clip7_2097_7133)">
<path d="M325.642 0.623535H304.12C302.948 0.623535 302 1.57118 302 2.74337V24.2652C302 25.4373 302.948 26.385 304.12 26.385H325.642C326.814 26.385 327.761 25.4373 327.761 24.2652V2.74337C327.761 1.57118 326.814 0.623535 325.642 0.623535ZM310.346 18.7201C311.366 20.0179 312.938 20.6839 315.012 20.6991C316.884 20.6839 318.121 20.2386 319.149 19.2111C320.325 18.0351 320.302 16.5965 319.925 15.7211C319.705 15.2035 319.305 14.7773 318.765 14.45C318.631 15.4319 318.334 16.2083 317.863 16.8096C317.242 17.6012 316.352 18.0313 315.221 18.096C314.361 18.1416 313.535 17.9361 312.896 17.5137C312.139 17.0113 311.693 16.2464 311.648 15.3558C311.553 13.5975 312.949 12.334 315.115 12.2122C315.884 12.1665 316.603 12.2046 317.269 12.3149C317.181 11.7745 317.002 11.3483 316.736 11.0362C316.371 10.61 315.804 10.393 315.054 10.3892C315.046 10.3892 315.039 10.3892 315.035 10.3892C314.434 10.3892 313.615 10.5567 313.094 11.3483L311.842 10.4882C312.538 9.43016 313.672 8.84786 315.039 8.84786C315.05 8.84786 315.058 8.84786 315.069 8.84786C317.349 8.8631 318.707 10.2865 318.841 12.7678C318.917 12.8021 318.993 12.8364 319.069 12.8706C320.131 13.3806 320.911 14.1531 321.318 15.1046C321.885 16.4328 321.939 18.5907 320.215 20.3147C318.894 21.6316 317.296 22.2253 315.023 22.2443H315.012C312.458 22.2253 310.495 21.3651 309.174 19.6906C307.998 18.1987 307.393 16.1208 307.374 13.5176V13.51V13.5024C307.393 10.8992 308.002 8.82124 309.174 7.32936C310.495 5.651 312.458 4.79088 315.012 4.77566H315.023C317.585 4.7947 319.571 5.651 320.926 7.32175C321.596 8.1476 322.091 9.14092 322.403 10.2941L320.934 10.6861C320.675 9.74984 320.283 8.94683 319.765 8.30744C318.707 7.00205 317.109 6.33604 315.02 6.32083C312.945 6.33604 311.374 7.00205 310.354 8.29983C309.398 9.51389 308.904 11.2684 308.885 13.5138C308.904 15.7592 309.398 17.5137 310.354 18.7277L310.346 18.7201Z" fill="white"/>
<path d="M315.198 13.7418C313.638 13.8331 313.12 14.5867 313.155 15.2641C313.204 16.1775 314.19 16.6038 315.141 16.5505C316.07 16.501 317.128 16.1356 317.307 13.8864C316.823 13.7799 316.294 13.7266 315.727 13.7266C315.556 13.7266 315.381 13.7304 315.202 13.7418H315.198Z" fill="white"/>
</g>
<defs>
<clipPath id="clip0_2097_7133">
<rect width="26" height="26" fill="white" transform="translate(8 0.623535)"/>
</clipPath>
<clipPath id="clip1_2097_7133">
<rect width="26" height="26" fill="white" transform="translate(50 0.623535)"/>
</clipPath>
<clipPath id="clip2_2097_7133">
<rect width="26" height="26" fill="white" transform="translate(92 0.623535)"/>
</clipPath>
<clipPath id="clip3_2097_7133">
<rect width="26" height="26" fill="white" transform="translate(134 0.623535)"/>
</clipPath>
<clipPath id="clip4_2097_7133">
<rect width="26" height="26" fill="white" transform="translate(176 0.623535)"/>
</clipPath>
<clipPath id="clip5_2097_7133">
<rect width="26" height="26" fill="white" transform="translate(218 0.623535)"/>
</clipPath>
<clipPath id="clip6_2097_7133">
<rect width="26" height="26" fill="white" transform="translate(260 0.623535)"/>
</clipPath>
<clipPath id="clip7_2097_7133">
<rect width="26" height="26" fill="white" transform="translate(302 0.623535)"/>
</clipPath>
</defs>
</svg>
